# xmcd
#
# Track frame offsets: 
#        150
#        17417
#        34607
#        54222
#        69527
#        82980
#        104777
#        123307
#        138335
#        150327
#        168150
#        189100
#        209807
#        225527
#        240472
#        257545
#        274640
#        305702
#
# Disc length: 4276 seconds
#
# Revision: 3
# Processed by: cddbd v1.5.2PL0 Copyright (c) Steve Scherf et al.
# Submitted via: ExactAudioCopy v1.0b3
#
DISCID=e310b212
DTITLE=Various Artist - Bag O' Blues - The King Snake Collection
DYEAR=1995
DGENRE=Blues
TTITLE0=Cold Cold World - Floyd Miles and Friends
TTITLE1=Blues Is My Religion - Eric Culberson
TTITLE2=He Will Break Your Heart - Alex Taylor
TTITLE3=Leave The Young Girls Alone - Chicago Bob Nelson
TTITLE4=I Been Mistreated - Raful Neal
TTITLE5=No, No, Henrietta - Ace Moreland
TTITLE6=I Fell In Love With A Prostitute - James Peterson
TTITLE7=Low Down Rider - Smokehouse
TTITLE8=Fire In The Henhouse - Root Boy Slim
TTITLE9=Dr. Hector and The Groove Injectors
TTITLE10=This Is The Life - Tony Coleman
TTITLE11=Another You - Midnight Creepers
TTITLE12=Handful Of Aces - Troy Turner
TTITLE13=Don't Play Me Cheap - Erica Guerin
TTITLE14=I Hate Hate - Razzy Bailey
TTITLE15=Please Send Me Someone To Love - Noble Thin Man Watts
TTITLE16=Cigarette Blues - Sonny Rhodes
TTITLE17=Jones And A Half - Bill Wharton and The Ingredients
EXTD=
EXTT0=
EXTT1=
EXTT2=
EXTT3=
EXTT4=
EXTT5=
EXTT6=
EXTT7=
EXTT8=
EXTT9=
EXTT10=
EXTT11=
EXTT12=
EXTT13=
EXTT14=
EXTT15=
EXTT16=
EXTT17=
PLAYORDER=
